<svg xmlns="http://www.w3.org/2000/svg" xmlns:xlink="http://www.w3.org/1999/xlink" width="336" zoomAndPan="magnify" viewBox="0 0 252 143.999998" height="192" preserveAspectRatio="xMidYMid meet" version="1.0"><defs><g/></defs><rect x="-25.2" width="302.4" fill="#ffffff" y="-14.4" height="172.799997" fill-opacity="1"/><rect x="-25.2" width="302.4" fill="#ffffff" y="-14.4" height="172.799997" fill-opacity="1"/><rect x="-25.2" width="302.4" fill="#f0f0f5" y="-14.4" height="172.799997" fill-opacity="1"/><g fill="#fcd153" fill-opacity="1"><g transform="translate(6.835774, 88.24612)"><g><path d="M 56.339844 0 C 57.449219 0 57.863281 -0.691406 57.863281 -1.800781 L 57.863281 -46.707031 C 57.863281 -47.816406 57.449219 -48.507812 56.339844 -48.507812 L 49.824219 -48.507812 C 48.578125 -48.507812 48.023438 -48.300781 47.539062 -47.398438 L 33.75 -22.453125 L 18.15625 -47.054688 C 17.53125 -48.09375 16.632812 -48.507812 15.59375 -48.507812 L 4.089844 -48.507812 C 3.464844 -48.507812 3.394531 -48.164062 3.394531 -47.746094 L 6.375 -42.964844 L 6.375 -1.800781 C 6.375 -0.691406 6.792969 0 7.898438 0 L 16.492188 0 C 17.601562 0 18.015625 -0.691406 18.015625 -1.800781 C 18.015625 -3.117188 17.117188 -3.671875 16.355469 -4.644531 L 7.34375 -19.75 L 7.34375 -41.371094 L 26.957031 -9.980469 L 28.066406 -9.980469 L 44.488281 -39.570312 L 44.488281 -1.800781 C 44.488281 -0.691406 44.90625 0 46.015625 0 Z M 56.339844 0 "/></g></g></g><g fill="#fcd153" fill-opacity="1"><g transform="translate(70.935156, 88.24612)"><g><path d="M 24.949219 0.691406 C 36.242188 0.691406 41.300781 -4.644531 41.300781 -16.144531 L 41.300781 -46.707031 C 41.300781 -47.816406 40.886719 -48.507812 39.777344 -48.507812 L 32.015625 -48.507812 C 31.667969 -48.507812 31.53125 -48.300781 31.53125 -48.023438 L 31.53125 -30.007812 C 31.53125 -29.519531 31.53125 -29.175781 32.015625 -28.621094 L 40.46875 -17.53125 L 40.46875 -16.144531 C 40.46875 -4.367188 33.886719 -0.277344 26.125 -0.277344 L 24.949219 -0.277344 C 19.613281 -0.277344 17.1875 -3.8125 17.1875 -16.144531 L 17.1875 -46.707031 C 17.1875 -47.816406 16.769531 -48.507812 15.660156 -48.507812 L 5.683594 -48.507812 C 4.574219 -48.507812 4.15625 -47.816406 4.15625 -46.707031 L 4.15625 -16.144531 C 4.15625 -4.644531 10.257812 0.691406 24.949219 0.691406 Z M 24.949219 0.691406 "/></g></g></g><g fill="#fcd153" fill-opacity="1"><g transform="translate(116.393741, 88.24612)"><g><path d="M 25.777344 -29.660156 C 20.164062 -31.253906 16.144531 -33.261719 16.144531 -38.460938 C 16.144531 -42.273438 18.226562 -48.371094 23.007812 -48.371094 L 25.777344 -48.371094 L 39.085938 -33.054688 C 39.777344 -32.15625 40.816406 -31.253906 41.300781 -31.253906 L 41.785156 -31.253906 C 42.550781 -31.253906 42.757812 -31.738281 42.757812 -32.5 L 42.757812 -46.914062 C 42.757812 -48.023438 42.339844 -48.648438 41.230469 -48.714844 L 25.777344 -49.339844 L 22.660156 -49.339844 C 9.148438 -49.339844 4.503906 -42.0625 4.503906 -35.964844 C 4.503906 -28.203125 8.800781 -22.660156 21.414062 -18.847656 C 27.582031 -16.976562 32.015625 -15.730469 32.015625 -9.632812 C 32.015625 -5.820312 29.730469 -0.277344 25.15625 -0.277344 L 21.757812 -0.277344 L 8.453125 -15.59375 C 7.761719 -16.492188 6.722656 -17.394531 6.238281 -17.394531 L 5.75 -17.394531 C 4.988281 -17.394531 4.78125 -16.910156 4.78125 -16.144531 L 4.78125 -1.734375 C 4.78125 -0.625 5.199219 0 6.304688 0.0703125 L 21.757812 0.691406 L 25.5 0.691406 C 39.015625 0.691406 44.628906 -6.097656 44.628906 -14.414062 C 44.628906 -23.285156 35.34375 -26.957031 25.777344 -29.660156 Z M 25.777344 -29.660156 "/></g></g></g><g fill="#fcd153" fill-opacity="1"><g transform="translate(165.525051, 88.24612)"><g><path d="M 6.238281 -1.800781 C 6.238281 -0.691406 6.652344 0 7.761719 0 L 16.5625 0 C 17.671875 0 18.085938 -0.691406 18.085938 -1.800781 L 18.085938 -46.707031 C 18.085938 -47.816406 17.671875 -48.507812 16.5625 -48.507812 L 7.761719 -48.507812 C 6.652344 -48.507812 6.238281 -47.816406 6.238281 -46.707031 Z M 6.238281 -1.800781 "/></g></g></g><g fill="#fcd153" fill-opacity="1"><g transform="translate(189.848175, 88.24612)"><g><path d="M 2.773438 -24.324219 C 2.773438 -7.484375 11.917969 0.691406 28.757812 0.691406 L 44.90625 0 C 46.152344 -0.136719 46.429688 -0.691406 46.429688 -1.800781 L 46.429688 -10.808594 C 46.429688 -11.78125 46.152344 -12.195312 45.460938 -12.472656 L 44.628906 -12.820312 C 44.351562 -12.890625 44.144531 -12.957031 43.867188 -12.957031 C 43.3125 -12.957031 42.828125 -12.75 42.339844 -12.265625 L 29.730469 -0.277344 C 22.105469 -0.277344 15.9375 -13.511719 15.9375 -24.324219 C 15.9375 -35.132812 22.105469 -48.371094 29.730469 -48.371094 L 42.339844 -36.382812 C 42.828125 -35.894531 43.3125 -35.6875 43.867188 -35.6875 C 44.144531 -35.6875 44.351562 -35.757812 44.628906 -35.828125 L 45.460938 -36.171875 C 46.152344 -36.449219 46.429688 -36.867188 46.429688 -37.835938 L 46.429688 -46.84375 C 46.429688 -47.953125 46.152344 -48.507812 44.90625 -48.648438 L 28.757812 -49.339844 C 11.917969 -49.339844 2.773438 -41.164062 2.773438 -24.324219 Z M 2.773438 -24.324219 "/></g></g></g><g fill="#fcd153" fill-opacity="1"><g transform="translate(240.780946, 88.24612)"><g/></g></g><g fill="#6c5883" fill-opacity="1"><g transform="translate(3.399539, 119.362447)"><g><path d="M 4.980469 -1.4375 C 4.980469 -0.554688 5.3125 0 6.199219 0 L 13.226562 0 C 14.113281 0 14.445312 -0.554688 14.445312 -1.4375 L 14.445312 -19.09375 L 29.5 -18.820312 L 29.5 -20.148438 L 14.445312 -19.871094 L 14.445312 -37.96875 L 19.980469 -37.96875 L 29.5 -29.945312 C 30.277344 -29.335938 31.214844 -28.617188 31.992188 -28.617188 L 32.324219 -28.617188 C 33.210938 -28.617188 33.542969 -29.167969 33.542969 -30.054688 L 33.542969 -37.304688 C 33.542969 -38.191406 33.210938 -38.746094 32.324219 -38.746094 L 6.199219 -38.746094 C 5.3125 -38.746094 4.980469 -38.191406 4.980469 -37.304688 Z M 4.980469 -1.4375 "/></g></g></g><g fill="#6c5883" fill-opacity="1"><g transform="translate(38.043784, 119.362447)"><g><path d="M 23.191406 -39.410156 C 8.964844 -39.410156 2.214844 -32.878906 2.214844 -19.425781 C 2.214844 -5.976562 8.964844 0.554688 23.191406 0.554688 C 37.414062 0.554688 44.167969 -5.976562 44.167969 -19.425781 C 44.167969 -32.878906 37.414062 -39.410156 23.191406 -39.410156 Z M 23.191406 -38.910156 C 29.28125 -38.910156 33.652344 -28.0625 33.652344 -19.425781 C 33.652344 -10.792969 29.28125 0.0546875 23.191406 0.0546875 C 17.101562 0.0546875 12.730469 -10.792969 12.730469 -19.425781 C 12.730469 -28.0625 17.101562 -38.910156 23.191406 -38.910156 Z M 23.191406 -38.910156 "/></g></g></g><g fill="#6c5883" fill-opacity="1"><g transform="translate(84.420583, 119.362447)"><g><path d="M 39.628906 0 C 40.570312 0 40.847656 -0.773438 40.347656 -1.4375 L 31.214844 -13.285156 C 30.828125 -13.78125 30.164062 -13.78125 29.554688 -13.78125 C 21.476562 -13.78125 19.539062 -15.386719 17.65625 -17.710938 L 19.925781 -17.710938 C 31.273438 -17.710938 35.535156 -21.640625 35.535156 -28.617188 C 35.535156 -36.144531 31.492188 -38.746094 19.925781 -38.746094 L 6.199219 -38.746094 C 5.3125 -38.746094 4.980469 -38.191406 4.980469 -37.304688 L 4.980469 -1.4375 C 4.980469 -0.554688 5.3125 0 6.199219 0 L 13.226562 0 C 14.113281 0 14.445312 -0.554688 14.445312 -1.4375 L 14.445312 -17.710938 L 16.605469 -17.710938 L 28.949219 -1.4375 C 29.667969 -0.554688 30.496094 0 31.382812 0 Z M 18.097656 -37.96875 C 23.191406 -37.96875 25.40625 -35.535156 25.40625 -28.617188 C 25.40625 -21.695312 23.191406 -18.488281 18.097656 -18.488281 L 14.445312 -18.488281 L 14.445312 -37.96875 Z M 18.097656 -37.96875 "/></g></g></g><g fill="#6c5883" fill-opacity="1"><g transform="translate(125.871922, 119.362447)"><g/></g></g><g fill="#6c5883" fill-opacity="1"><g transform="translate(142.474598, 119.362447)"><g><path d="M 10.238281 0 C 11.402344 0 11.789062 -0.609375 11.457031 -1.4375 L 7.363281 -10.570312 L 24.960938 -10.570312 L 29.058594 -1.4375 C 29.445312 -0.609375 30.054688 0 31.050781 0 L 39.132812 0 C 40.015625 0 40.292969 -0.71875 40.015625 -1.4375 L 23.964844 -37.304688 C 23.632812 -38.078125 22.914062 -38.746094 21.972656 -38.746094 L 18.597656 -38.746094 C 17.824219 -38.746094 17.046875 -38.078125 16.714844 -37.304688 L 0.664062 -1.4375 C 0.386719 -0.71875 0.664062 0 1.550781 0 Z M 24.628906 -11.347656 L 7.03125 -11.347656 L 6.476562 -12.5625 L 15.277344 -32.324219 Z M 24.628906 -11.347656 "/></g></g></g><g fill="#6c5883" fill-opacity="1"><g transform="translate(183.151145, 119.362447)"><g><path d="M 31.992188 -8.691406 C 31.992188 -9.574219 31.660156 -10.128906 30.773438 -10.128906 L 30.441406 -10.128906 C 29.667969 -10.128906 28.726562 -9.410156 27.949219 -8.800781 L 18.429688 -0.773438 L 14.445312 -0.773438 L 14.445312 -37.304688 C 14.445312 -38.191406 14.113281 -38.746094 13.226562 -38.746094 L 6.199219 -38.746094 C 5.3125 -38.746094 4.980469 -38.191406 4.980469 -37.304688 L 4.980469 -1.4375 C 4.980469 -0.554688 5.3125 0 6.199219 0 L 30.773438 0 C 31.660156 0 31.992188 -0.554688 31.992188 -1.4375 Z M 31.992188 -8.691406 "/></g></g></g><g fill="#6c5883" fill-opacity="1"><g transform="translate(216.245805, 119.362447)"><g><path d="M 31.992188 -8.691406 C 31.992188 -9.574219 31.660156 -10.128906 30.773438 -10.128906 L 30.441406 -10.128906 C 29.667969 -10.128906 28.726562 -9.410156 27.949219 -8.800781 L 18.429688 -0.773438 L 14.445312 -0.773438 L 14.445312 -37.304688 C 14.445312 -38.191406 14.113281 -38.746094 13.226562 -38.746094 L 6.199219 -38.746094 C 5.3125 -38.746094 4.980469 -38.191406 4.980469 -37.304688 L 4.980469 -1.4375 C 4.980469 -0.554688 5.3125 0 6.199219 0 L 30.773438 0 C 31.660156 0 31.992188 -0.554688 31.992188 -1.4375 Z M 31.992188 -8.691406 "/></g></g></g></svg>